<?xml version="1.0" encoding="utf-8"?>
<!-- Generator: Adobe Illustrator 26.5.0, SVG Export Plug-In . SVG Version: 6.00 Build 0)  -->
<svg version="1.1" id="Layer_1" xmlns="http://www.w3.org/2000/svg" xmlns:xlink="http://www.w3.org/1999/xlink" x="0px" y="0px"
	 viewBox="0 0 32 32" style="enable-background:new 0 0 32 32;" xml:space="preserve">
<style type="text/css">
	.st0{fill:#802A19;}
	.st1{fill:url(#SVGID_1_);stroke:#F3F2B4;stroke-width:4.128467e-03;stroke-miterlimit:10;}
	
		.st2{fill:url(#SVGID_00000136400197872033144220000001334508380789948568_);stroke:#F4F2B4;stroke-width:4.128467e-03;stroke-miterlimit:10;}
	
		.st3{fill:url(#SVGID_00000130636767808346815190000000149453109837593521_);stroke:#F3F2B4;stroke-width:4.128467e-03;stroke-miterlimit:10;}
</style>
<g>
	<g>
		<g>
			<path class="st0" d="M16.1,31.6c-0.7,0-1.3-0.1-2-0.2c-3.2-0.5-6-2.3-7.7-4.7c-1.1-1.6-1.6-3.4-1.4-5.3c0.2-1.9,1-3.6,2.4-4.9
				c0.8-0.8,1.9-1.6,2.9-2.1c-1.8-1.8-2.6-3.6-2.6-5.5c0-2.2,0.8-4.3,2.3-5.7c1.4-1.4,3.3-2.2,5.4-2.2c1.1,0,2.2,0.2,3.2,0.6
				l0.2-0.2c0.4-0.3,0.9-0.4,1.3-0.3c0,0,0,0,0,0c1-1,2.9-0.9,2.9-0.9c1,0.1,1.8,0.8,2.2,1.8c0.4,1-0.1,1.6-0.3,1.8
				c-0.4,0.6-1.1,0.5-1.4,0.5c0,0-0.1,0-0.1,0c-0.1,0.1-0.1,0.2-0.1,0.3c0,0.2-0.1,1.4-0.1,2.6c0,0.3,0.1,0.4,0.1,0.5
				c0,0,0.1,0.1,0.1,0.1l0.9,0.9c0.4,0.4,0.5,0.9,0.4,1.4c-0.1,0.5-0.5,0.9-0.9,1.1c-0.3,0.1-0.7,0.2-1,0.2c2.2,1.7,3.9,4.3,4.3,6.8
				c0.5,3.9-0.8,8-3.5,10.5v0c-0.3,0.2-0.5,0.5-0.8,0.7C20.8,30.9,18.5,31.6,16.1,31.6z M22,9.4L22,9.4L22,9.4z M23.3,4.5L23.3,4.5
				L23.3,4.5z"/>
		</g>
		<linearGradient id="SVGID_1_" gradientUnits="userSpaceOnUse" x1="13.7631" y1="-2.6999" x2="24.4883" y2="44.2248">
			<stop  offset="0.1758" style="stop-color:#F8A723"/>
			<stop  offset="0.2316" style="stop-color:#F8A927"/>
			<stop  offset="0.2922" style="stop-color:#F9AE34"/>
			<stop  offset="0.3552" style="stop-color:#FAB74A"/>
			<stop  offset="0.4198" style="stop-color:#FBC469"/>
			<stop  offset="0.4855" style="stop-color:#FDD590"/>
			<stop  offset="0.5514" style="stop-color:#FEE9BF"/>
			<stop  offset="0.5678" style="stop-color:#FFEECC"/>
		</linearGradient>
		<path class="st1" d="M16.4,8.7C16.4,8.7,16.4,8.7,16.4,8.7C16.4,8.6,16.4,8.7,16.4,8.7"/>
	</g>
	<g>
		<path d="M22.8,28.1c2.6-2.4,3.7-6.2,3.2-9.6c-0.4-3.1-3.1-6.1-5.9-7.3c-0.1,0-0.2-0.1-0.3-0.1c0.1,0,0.1-0.1,0.2-0.1l0.2,0.2
			c0.1,0.1,0.3,0.2,0.4,0.2c0.2,0,0.3-0.1,0.4-0.2l0.7-0.7c0.2,0.1,0.5,0.1,0.8,0.1c0.3,0,0.6-0.1,0.9-0.2c0.2-0.1,0.3-0.2,0.3-0.4
			c0-0.2,0-0.4-0.2-0.5l-0.9-0.9c0,0-0.1-0.1-0.1-0.1c0,0-0.4-0.3-0.4-1.2c0-1.2,0.1-2.4,0.1-2.7c0.1-0.4,0.3-0.9,0.7-1.1
			c0.3-0.2,1,0.1,1.2-0.2c0.2-0.3,0.3-0.5,0.2-0.9c-0.2-0.4-0.6-1.1-1.4-1.1c-0.1,0-1.5,0-2.1,0.6c-0.1,0.1-0.2,0.2-0.4,0.3
			c-0.1,0.1-0.1,0.1-0.2,0.2l-0.1-0.1c-0.2-0.2-0.5-0.2-0.8-0.1l-0.7,0.5c-1.1-0.5-2.2-0.8-3.4-0.8c-1.8,0-3.5,0.6-4.7,1.9
			c-1.3,1.3-2,3.2-2,5c0,1.9,1,3.5,2.4,4.8c0.4,0.4,0.8,0.7,1.3,0.9C10.7,15.1,9.2,16,8,17.2c-2.5,2.5-2.8,6.1-0.8,9
			c3.2,4.6,10.3,6,14.9,2.6C22.3,28.6,22.5,28.3,22.8,28.1z M13,8.4c-0.2-1.8,2-3.1,3.5-3.1c0.4,0,0.7,0.1,1,0.2
			c0,0.1,0.1,0.2,0.1,0.3v2.3c0,0.1,0,0.3-0.1,0.5c0,0.2-0.1,0.3-0.1,0.3c0,0,0,0,0,0l-0.7-0.7C16.5,8,16.2,8,16,8.1
			c-0.2,0.1-0.4,0.3-0.4,0.5c0,0.1,0,0.3,0.1,0.6c0.1,0.3,0.2,0.6,0.5,0.8l0.4,0.4c-0.7-0.1-1.4-0.2-2-0.3C13.7,9.9,13,9.3,13,8.4z
			 M19.9,25.8c-0.6,0.6-1.3,1-2,1.3c-1.5,0.6-3.3,0.5-4.8-0.1c-1-0.4-1.7-1-2.1-2c-1.4-3.6,1.9-9,6.1-7.6c1,0.3,1.8,1.2,1.6,2.3
			c-0.1,0.3-0.2,0.7-0.6,0.8c-0.2,0.1-0.5,0-0.8-0.1c-0.2,0-0.5,0-0.7,0.1c-0.1,0.2-0.1,0.4-0.1,0.6c0.1,0.2,0.2,0.4,0.4,0.5
			c0.5,0.6,1.1,1.2,1.9,1.4c1.1,0.3,2-0.2,2.9-0.7C21.7,23.6,20.8,25,19.9,25.8z"/>
		
			<linearGradient id="SVGID_00000032639142140386889600000006584758958020179127_" gradientUnits="userSpaceOnUse" x1="15.1774" y1="-1.644" x2="15.7705" y2="31.8085">
			<stop  offset="2.099335e-03" style="stop-color:#F9A726"/>
			<stop  offset="0.1455" style="stop-color:#F9A92A"/>
			<stop  offset="0.3014" style="stop-color:#FAAE37"/>
			<stop  offset="0.4633" style="stop-color:#FAB84D"/>
			<stop  offset="0.6291" style="stop-color:#FCC56C"/>
			<stop  offset="0.7982" style="stop-color:#FDD693"/>
			<stop  offset="0.9675" style="stop-color:#FFEAC2"/>
			<stop  offset="1" style="stop-color:#FFEECC"/>
		</linearGradient>
		
			<path style="fill:url(#SVGID_00000032639142140386889600000006584758958020179127_);stroke:#F4F2B4;stroke-width:4.128467e-03;stroke-miterlimit:10;" d="
			M20,11.9c-1.7-0.7-3.5-0.7-5.3-1.1c-0.9-0.2-2-0.6-2.6-1.4c-0.4-0.5-0.6-1.2-0.5-1.9c0.1-2.4,3.5-4.4,5.7-3.2c0.5,0.3,1,1,1,1.5
			v2.3c0,0.4-0.1,1.1-0.6,1.3c-0.5,0.3-1.3-0.3-1.3-0.8c0,0.3,0.1,1.4,1.4,1.4c0.8,0,1.2-0.4,1.4-0.7l0.6,0.6l1-1
			c0.3,0.2,0.9,0.4,1.6,0.1c0,0-1.1-0.1-1.1-1.5c0-0.9,0-1.7,0.1-2.6C21.4,3.8,22,2.9,23,2.6c0.3,0,0.4,0,0.9,0.3
			C23.8,2.3,23.4,2.1,23,2c-0.4-0.1-0.7,0.1-0.7,0.1l0.1,0c-0.4,0.1-0.8,0.3-1.1,0.5C21,2.7,20.7,3,20.5,3.3c0,0-0.1,0.1-0.1,0.2
			l-0.6-0.6L19,3.7c0,0-0.1-0.1-0.1-0.1C15.3,1.8,11,2.9,9.7,6.9c-0.6,1.8-0.5,3.9,0.8,5.4c0.9,1,2.1,1.5,3.3,1.7
			c0.6,0.1,1.3,0.2,1.9,0.3c2.8,0.3,6.2,1.6,6.9,4.7c0.8,3.3-1.1,7.5-4.3,8.7c-2.1,0.8-4.6,0.5-6.5-0.8c-2-1.3-2.8-3.9-2.2-6.2
			c0.6-2.3,2.6-4.7,5.2-4.8c1.1-0.1,2.6,0.3,3.5,1.1c0.9,0.9,1.6,2.2,1,3.5c-0.4,0.8-1.2,0.8-2,0.6c0,0,1.1,1.4,3,0.4
			c1.9-1,1.2-3,1.2-3s-0.7-3.7-6.9-3.5c-3.5,0.1-7.8,3.1-8,6.8c-0.1,1.6,0.5,3.2,1.5,4.4c2.4,2.8,7.1,4.2,10.5,2.7
			c0.9-0.4,2-1,2.7-1.8c2.8-2.8,4.2-7.8,2.6-11.5C23.2,13.8,21.7,12.6,20,11.9z"/>
		
			<linearGradient id="SVGID_00000124848160765117847040000013297475259443960968_" gradientUnits="userSpaceOnUse" x1="13.7639" y1="-2.6989" x2="24.4892" y2="44.2258">
			<stop  offset="0.1758" style="stop-color:#F8A723"/>
			<stop  offset="0.2316" style="stop-color:#F8A927"/>
			<stop  offset="0.2922" style="stop-color:#F9AE34"/>
			<stop  offset="0.3552" style="stop-color:#FAB74A"/>
			<stop  offset="0.4198" style="stop-color:#FBC469"/>
			<stop  offset="0.4855" style="stop-color:#FDD590"/>
			<stop  offset="0.5514" style="stop-color:#FEE9BF"/>
			<stop  offset="0.5678" style="stop-color:#FFEECC"/>
		</linearGradient>
		
			<path style="fill:url(#SVGID_00000124848160765117847040000013297475259443960968_);stroke:#F3F2B4;stroke-width:4.128467e-03;stroke-miterlimit:10;" d="
			M16.4,8.7C16.4,8.7,16.4,8.7,16.4,8.7C16.4,8.6,16.4,8.7,16.4,8.7"/>
	</g>
</g>
</svg>
